<svg viewBox="0 0 75 75" xml:space="preserve" xmlns="http://www.w3.org/2000/svg"><path d="M53.562 33.611a2.387 2.387 0 0 0-1.932-1.629l-8.281-1.203-3.705-7.506c-.807-1.633-3.482-1.633-4.291 0l-3.703 7.506-8.283 1.203a2.393 2.393 0 0 0-1.325 4.082l5.992 5.842-1.414 8.248a2.394 2.394 0 0 0 3.471 2.524l7.408-3.896 7.408 3.896c.352.182.732.273 1.113.273a2.41 2.41 0 0 0 1.406-.457 2.398 2.398 0 0 0 .951-2.34l-1.414-8.248 5.992-5.842a2.388 2.388 0 0 0 .607-2.453z" fill="#86a8e7" class="fill-ed9015"></path><path d="m35.354 23.273-3.703 7.506-8.283 1.203a2.393 2.393 0 0 0-1.325 4.082l5.992 5.842-1.414 8.248a2.394 2.394 0 0 0 3.471 2.524l7.408-3.896V22.049c-.871 0-1.742.408-2.146 1.224z" fill="#d16ba5" class="fill-eab818"></path><path d="m46.971 41.945-.006-.039 5.992-5.842a2.392 2.392 0 0 0-1.327-4.082l-8.281-1.203-3.705-7.506c-.807-1.633-3.482-1.633-4.291 0l-3.703 7.506-.055.008 15.376 11.158z" fill="#5ffbf1" class="fill-f26606"></path><path d="M37.5 35.072V22.049c-.871 0-1.742.408-2.146 1.225l-3.703 7.506-.055.008 5.904 4.284zM37.5 13.199a2.13 2.13 0 0 1-2.131-2.131V8.406a2.13 2.13 0 1 1 4.26 0v2.662a2.13 2.13 0 0 1-2.129 2.131zM37.5 68.725a2.13 2.13 0 0 1-2.131-2.131v-2.662a2.13 2.13 0 1 1 4.26 0v2.662a2.13 2.13 0 0 1-2.129 2.131zM54.684 20.316a2.132 2.132 0 0 1 0-3.014l1.883-1.883a2.13 2.13 0 0 1 3.012 0 2.128 2.128 0 0 1 0 3.014l-1.883 1.883a2.13 2.13 0 0 1-3.012 0zM15.42 59.578a2.13 2.13 0 0 1 0-3.012l1.883-1.883a2.132 2.132 0 0 1 3.014 3.014l-1.883 1.881a2.128 2.128 0 0 1-3.014 0zM61.801 37.5a2.13 2.13 0 0 1 2.131-2.131h2.662a2.132 2.132 0 0 1 0 4.262h-2.662a2.13 2.13 0 0 1-2.131-2.131zM6.275 37.5a2.128 2.128 0 0 1 2.131-2.131h2.662a2.132 2.132 0 0 1 0 4.262H8.406A2.132 2.132 0 0 1 6.275 37.5zM54.684 54.684a2.13 2.13 0 0 1 3.012 0l1.883 1.883a2.128 2.128 0 0 1 0 3.012c-.83.834-2.18.834-3.012 0l-1.883-1.881a2.132 2.132 0 0 1 0-3.014zM15.42 15.42a2.132 2.132 0 0 1 3.014 0l1.883 1.883a2.132 2.132 0 0 1-3.014 3.014l-1.883-1.883a2.132 2.132 0 0 1 0-3.014z" fill="#86a8e7" class="fill-ed9015"></path></svg>