<svg xmlns="http://www.w3.org/2000/svg" xmlns:xlink="http://www.w3.org/1999/xlink" width="500" zoomAndPan="magnify" viewBox="0 0 375 374.999991" height="500" preserveAspectRatio="xMidYMid meet" version="1.0"><defs><clipPath id="2d9536b6ab"><path d="M 22 60.996094 L 246 60.996094 L 246 259.90625 L 22 259.90625 Z M 22 60.996094 " clip-rule="nonzero"/></clipPath><clipPath id="7bff28dbec"><path d="M 123.050781 252.75 L 24.640625 80.53125 C 22.332031 76.492188 22.347656 71.527344 24.683594 67.5 C 27.019531 63.476562 31.324219 60.996094 35.976562 60.996094 L 232.453125 60.996094 C 237.105469 60.996094 241.410156 63.476562 243.746094 67.5 C 246.082031 71.527344 246.097656 76.492188 243.789062 80.53125 L 145.378906 252.75 C 143.089844 256.757812 138.828125 259.230469 134.214844 259.230469 C 129.601562 259.230469 125.339844 256.757812 123.050781 252.75 Z M 123.050781 252.75 " clip-rule="nonzero"/></clipPath><clipPath id="813f0bb7c2"><path d="M 98 98.917969 L 352.988281 98.917969 L 352.988281 324.453125 L 98 324.453125 Z M 98 98.917969 " clip-rule="nonzero"/></clipPath><clipPath id="abf6043559"><path d="M 214.011719 317.964844 L 100.003906 118.453125 C 97.695312 114.410156 97.710938 109.445312 100.046875 105.421875 C 102.386719 101.394531 106.6875 98.917969 111.34375 98.917969 L 339.007812 98.917969 C 343.660156 98.917969 347.964844 101.394531 350.300781 105.421875 C 352.636719 109.445312 352.652344 114.410156 350.34375 118.453125 L 236.335938 317.964844 C 234.046875 321.96875 229.789062 324.441406 225.175781 324.441406 C 220.5625 324.441406 216.300781 321.96875 214.011719 317.964844 Z M 214.011719 317.964844 " clip-rule="nonzero"/></clipPath><clipPath id="f43861982e"><path d="M 118.574219 150.292969 L 203.582031 150.292969 L 203.582031 224.675781 L 118.574219 224.675781 Z M 118.574219 150.292969 " clip-rule="nonzero"/></clipPath><clipPath id="89887f981a"><path d="M 161.078125 224.675781 L 118.574219 150.292969 L 203.582031 150.292969 Z M 161.078125 224.675781 " clip-rule="nonzero"/></clipPath></defs><g clip-path="url(#2d9536b6ab)"><g clip-path="url(#7bff28dbec)"><path fill="#d16ba5" d="M 254.953125 272.285156 L 13.476562 272.285156 L 13.476562 60.996094 L 254.953125 60.996094 Z M 254.953125 272.285156 " fill-opacity="1" fill-rule="nonzero"/></g></g><g clip-path="url(#813f0bb7c2)"><g clip-path="url(#abf6043559)"><path fill="#86a8e7" d="M 361.507812 337.5 L 88.84375 337.5 L 88.84375 98.917969 L 361.507812 98.917969 Z M 361.507812 337.5 " fill-opacity="1" fill-rule="nonzero"/></g></g><g clip-path="url(#f43861982e)"><g clip-path="url(#89887f981a)"><path fill="#5ffbf1" d="M 203.582031 224.675781 L 118.574219 224.675781 L 118.574219 150.292969 L 203.582031 150.292969 Z M 203.582031 224.675781 " fill-opacity="1" fill-rule="nonzero"/></g></g></svg>