<svg height="256" preserveAspectRatio="xMidYMid" viewBox="0 0 256 256" width="256" xmlns="http://www.w3.org/2000/svg"><path d="m234.651433 39.3216115c0 4.5026176-1.668329 8.6079452-4.406174 11.7603534 16.160769 21.4306164 25.754741 48.0735023 25.754741 76.9187551 0 70.577953-57.419888 128.00072-127.99928 128.00072-70.5793923 0-128.00072-57.422767-128.00072-128.00072 0-70.5793924 57.4198882-128.00072 127.999281-128.00072 28.845252 0 55.488138 9.59397231 76.917316 25.756181 3.155286-2.7378448 7.257735-4.4047345 11.761792-4.4047345 9.923607 0 17.973044 8.0436786 17.973044 17.970165zm-106.652152 212.3729775c68.205729 0 123.693868-55.491019 123.690989-123.696748 0-27.735432-9.175091-53.3620624-24.6478-74.0153731-2.932171 2.0756953-6.500582 3.30643-10.36696 3.30643-9.923607 0-17.970165-8.0436786-17.970165-17.9687257 0-3.8649386 1.230734-7.4376677 3.30643-10.3683994-20.653311-15.4727095-46.27994-24.64780021-74.012494-24.64780021-68.2042909 0-123.69530844 55.49101761-123.69530844 123.69530841 0 68.204289 55.49101754 123.695308 123.69530844 123.695308zm.001439-71.434429c-28.8628863 0-52.2608787-23.397993-52.2608787-52.260879 0-28.8628867 23.3979924-52.2608792 52.2608787-52.2608792 28.862887 0 52.260879 23.3979925 52.260879 52.2608792 0 28.862886-23.397992 52.260879-52.260879 52.260879z" fill="#4e8ef7"/></svg>